<svg xmlns="http://www.w3.org/2000/svg" version="1.1"
    xmlns:xlink="http://www.w3.org/1999/xlink"
    xmlns:svgjs="http://svgjs.dev/svgjs" width="1500" height="1500" viewBox="0 0 1500 1500">
    <g transform="matrix(1,0,0,1,0,0)">
        <svg viewBox="0 0 280 280" data-background-color="#ffffff" preserveAspectRatio="xMidYMid meet" height="1500" width="1500"
            xmlns="http://www.w3.org/2000/svg"
            xmlns:xlink="http://www.w3.org/1999/xlink">
            <g id="tight-bounds" transform="matrix(1,0,0,1,0,0)">
                <svg viewBox="0 0 280 280" height="280" width="280">
                    <g>
                        <svg viewBox="0 0 280 280" height="280" width="280">
                            <g>
                                <svg viewBox="0 0 280 280" height="280" width="280">
                                    <g id="textblocktransform">
                                        <svg viewBox="0 0 280 280" height="280" width="280" id="textblock">
                                            <g>
                                                <svg viewBox="0 0 280 280" height="280" width="280">
                                                    <g transform="matrix(1,0,0,1,90.50252531694167,109.72236199272955)">
                                                        <svg viewBox="0 0 98.99494936611666 60.5552760145409" height="60.5552760145409" width="98.99494936611666">
                                                            <g id="icon-0">
                                                                <svg xmlns="http://www.w3.org/2000/svg"
                                                                    xmlns:xlink="http://www.w3.org/1999/xlink" version="1.1" x="0" y="0" viewBox="4.463999999999996 21.37 87.072 53.262" enable-background="new 0 0 96 96.001" xml:space="preserve" height="60.5552760145409" width="98.99494936611666" class="icon-xg-0" data-fill-palette-color="accent" id="xg-0">
                                                                    <path d="M52.044 56.528c0.798-0.043 1.584-0.112 2.37-0.18 0.313-0.028 0.627-0.056 0.939-0.087 0.013-0.114 0.024-0.23 0.037-0.346 0.104-0.962 0.193-1.94 0.258-2.938 0.003-0.057 0.009-0.111 0.013-0.168 0.065-1.034 0.102-2.091 0.125-3.156 0.003-0.121 0.005-0.243 0.007-0.364-0.11 0.011-0.224 0.016-0.334 0.026-1.029 0.102-2.068 0.189-3.121 0.249-0.04 0.002-0.081 0.003-0.121 0.005-1.027 0.056-2.064 0.086-3.105 0.101-0.121 0.002-0.239 0.011-0.36 0.012v0.004 6.931c1.015-0.01 2.028-0.03 3.031-0.08C51.869 56.532 51.957 56.532 52.044 56.528z" fill="#1c4b82" data-fill-palette-color="accent"></path>
                                                                    <path d="M56.459 36.65c0.032 0.201 0.06 0.405 0.09 0.608 0.076 0.513 0.146 1.032 0.211 1.558 0.016 0.131 0.037 0.255 0.052 0.386 0.686-0.083 1.372-0.167 2.037-0.27 0.132-0.021 0.259-0.044 0.391-0.065 0.451-0.072 0.882-0.157 1.321-0.238-1.213-1.628-2.727-3.003-4.462-4.052 0.002 0.009 0.003 0.019 0.005 0.028C56.232 35.271 56.35 35.956 56.459 36.65z" fill="#1c4b82" data-fill-palette-color="accent"></path>
                                                                    <path d="M60.78 57.032c-0.095 0.018-0.194 0.031-0.29 0.048-0.482 0.086-0.97 0.168-1.465 0.243-0.203 0.031-0.408 0.061-0.613 0.09-0.44 0.063-0.885 0.122-1.335 0.177-0.125 0.016-0.246 0.035-0.372 0.05l0 0.002h-0.003c-0.015 0.111-0.033 0.218-0.048 0.329-0.057 0.414-0.117 0.824-0.18 1.229-0.029 0.188-0.058 0.374-0.089 0.56-0.074 0.446-0.152 0.886-0.234 1.32-0.019 0.096-0.034 0.196-0.052 0.292C57.949 60.258 59.536 58.787 60.78 57.032z" fill="#1c4b82" data-fill-palette-color="accent"></path>
                                                                    <path d="M58.973 40.429c-0.656 0.1-1.319 0.194-1.996 0.275l0 0.005h-0.004c0.082 0.854 0.134 1.707 0.187 2.561 0.015 0.253 0.042 0.504 0.055 0.758 0.06 1.176 0.095 2.36 0.101 3.566 0.257-0.033 0.516-0.065 0.771-0.102 0.206-0.029 0.413-0.057 0.616-0.088 0.533-0.08 1.057-0.167 1.574-0.26 0.078-0.014 0.158-0.025 0.235-0.04 0.59-0.107 1.167-0.225 1.734-0.348 0.172-0.037 0.339-0.077 0.509-0.116 0.277-0.063 0.549-0.13 0.82-0.196-0.223-2.28-0.942-4.487-2.102-6.445-0.734 0.145-1.489 0.275-2.258 0.396C59.136 40.407 59.053 40.416 58.973 40.429z" fill="#1c4b82" data-fill-palette-color="accent"></path>
                                                                    <path d="M60.655 48.602c-0.097 0.018-0.198 0.032-0.296 0.049-0.883 0.155-1.791 0.291-2.715 0.413-0.115 0.015-0.221 0.036-0.336 0.051v0.004l-0.005 0.001c-0.002 0.12-0.011 0.236-0.013 0.357-0.019 1.017-0.053 2.023-0.11 3.015-0.004 0.079-0.006 0.159-0.011 0.238-0.063 1.036-0.151 2.051-0.254 3.05-0.011 0.105-0.016 0.217-0.027 0.322 0.074-0.009 0.149-0.018 0.223-0.027 0.752-0.094 1.494-0.198 2.218-0.315 0.116-0.019 0.228-0.04 0.343-0.06 0.644-0.107 1.273-0.226 1.89-0.352 0.098-0.02 0.196-0.038 0.293-0.059 1.189-2.25 1.817-4.771 1.817-7.315 0 0 0 0 0-0.001-0.099 0.023-0.208 0.041-0.308 0.064C62.485 48.242 61.586 48.434 60.655 48.602z" fill="#1c4b82" data-fill-palette-color="accent"></path>
                                                                    <path d="M52.315 48.063c0.011-0.001 0.021-0.002 0.031-0.002 1.052-0.061 2.089-0.15 3.117-0.254 0.116-0.013 0.233-0.023 0.349-0.036-0.003-1.227-0.033-2.432-0.093-3.626-0.017-0.331-0.051-0.66-0.072-0.991-0.049-0.762-0.108-1.523-0.182-2.284-0.108 0.011-0.217 0.015-0.326 0.025-0.993 0.095-1.986 0.176-2.986 0.229-0.018 0.001-0.036 0.002-0.054 0.002-0.996 0.054-2.004 0.08-3.022 0.095-0.11 0.001-0.217 0.009-0.328 0.01v0.004 6.939c0.114-0.001 0.229-0.003 0.343-0.005C50.174 48.155 51.251 48.124 52.315 48.063z" fill="#1c4b82" data-fill-palette-color="accent"></path>
                                                                    <path d="M52.067 39.628c0.032-0.002 0.063-0.006 0.095-0.008 0.719-0.04 1.432-0.104 2.146-0.165 0.336-0.03 0.672-0.061 1.008-0.094-0.01-0.084-0.021-0.169-0.031-0.254-0.108-0.887-0.228-1.759-0.367-2.605-0.012-0.073-0.026-0.145-0.039-0.218-0.135-0.804-0.285-1.583-0.447-2.343-0.019-0.088-0.037-0.178-0.056-0.265-1.799-0.808-3.687-1.262-5.626-1.355v7.395c0.335-0.003 0.667-0.01 1-0.016C50.526 39.683 51.303 39.669 52.067 39.628z" fill="#1c4b82" data-fill-palette-color="accent"></path>
                                                                    <path d="M36.672 55.759c0.724 0.117 1.465 0.222 2.218 0.315 0.074 0.01 0.149 0.019 0.223 0.027-0.011-0.105-0.016-0.217-0.027-0.322-0.104-1-0.192-2.014-0.254-3.05-0.005-0.079-0.007-0.159-0.011-0.238-0.057-0.991-0.091-1.998-0.11-3.015-0.002-0.121-0.011-0.237-0.013-0.357l-0.007-0.001v-0.004c-0.114-0.015-0.22-0.036-0.334-0.051-0.925-0.122-1.832-0.258-2.715-0.413-0.098-0.017-0.199-0.031-0.296-0.049-0.932-0.168-1.83-0.359-2.708-0.564-0.1-0.023-0.208-0.041-0.308-0.064 0 0.001 0 0.001 0 0.001 0 2.544 0.627 5.065 1.817 7.315 0.097 0.021 0.195 0.039 0.293 0.059 0.616 0.126 1.246 0.244 1.89 0.352C36.444 55.719 36.557 55.74 36.672 55.759z" fill="#1c4b82" data-fill-palette-color="accent"></path>
                                                                    <path d="M33.754 46.758c0.567 0.122 1.144 0.239 1.733 0.347 0.077 0.015 0.158 0.026 0.236 0.04 0.517 0.093 1.041 0.18 1.573 0.26 0.204 0.031 0.411 0.059 0.617 0.088 0.254 0.036 0.513 0.068 0.77 0.102 0.006-1.206 0.041-2.391 0.101-3.566 0.013-0.253 0.04-0.505 0.055-0.758 0.053-0.854 0.105-1.707 0.187-2.561h-0.004l0-0.005c-0.676-0.081-1.339-0.176-1.996-0.275-0.08-0.013-0.164-0.021-0.244-0.034-0.769-0.12-1.523-0.251-2.258-0.396-1.16 1.958-1.879 4.165-2.102 6.445 0.271 0.066 0.542 0.133 0.819 0.196C33.414 46.679 33.582 46.72 33.754 46.758z" fill="#1c4b82" data-fill-palette-color="accent"></path>
                                                                    <path d="M39.64 59.9c-0.124-0.738-0.241-1.488-0.342-2.259h-0.003l0-0.002c-0.126-0.015-0.247-0.034-0.372-0.05-0.45-0.055-0.895-0.114-1.335-0.177-0.205-0.029-0.41-0.059-0.613-0.09-0.496-0.075-0.983-0.157-1.465-0.243-0.095-0.017-0.195-0.03-0.29-0.048 1.245 1.755 2.831 3.226 4.682 4.34-0.062-0.316-0.115-0.646-0.172-0.97C39.7 60.234 39.668 60.07 39.64 59.9z" fill="#1c4b82" data-fill-palette-color="accent"></path>
                                                                    <path d="M35.439 38.629c0.438 0.081 0.87 0.166 1.321 0.238 0.131 0.021 0.258 0.045 0.391 0.065 0.665 0.103 1.351 0.187 2.037 0.27 0.016-0.132 0.037-0.257 0.053-0.388 0.065-0.526 0.136-1.045 0.211-1.559 0.03-0.2 0.058-0.402 0.089-0.602 0.11-0.696 0.227-1.383 0.356-2.051 0.002-0.009 0.003-0.018 0.005-0.026C38.166 35.626 36.652 37.001 35.439 38.629z" fill="#1c4b82" data-fill-palette-color="accent"></path>
                                                                    <path d="M43.838 39.62c0.032 0.002 0.063 0.006 0.095 0.008 0.764 0.041 1.541 0.055 2.317 0.072 0.333 0.006 0.665 0.013 1 0.016v-7.395c-1.939 0.094-3.827 0.548-5.627 1.355-0.017 0.077-0.033 0.157-0.049 0.235-0.165 0.771-0.318 1.565-0.455 2.383-0.011 0.069-0.025 0.136-0.036 0.206-0.139 0.846-0.259 1.719-0.367 2.605-0.01 0.085-0.021 0.17-0.031 0.255 0.336 0.033 0.672 0.063 1.008 0.094C42.407 39.516 43.12 39.58 43.838 39.62z" fill="#1c4b82" data-fill-palette-color="accent"></path>
                                                                    <path d="M54.832 59.949c0.032-0.186 0.058-0.38 0.088-0.567 0.084-0.516 0.158-1.047 0.231-1.579-0.897 0.085-1.808 0.146-2.722 0.198-0.128 0.008-0.252 0.021-0.381 0.028-1.092 0.057-2.193 0.092-3.298 0.103v0.004 5.491c1.937-0.094 3.823-0.548 5.622-1.354C54.537 61.52 54.693 60.75 54.832 59.949z" fill="#1c4b82" data-fill-palette-color="accent"></path>
                                                                    <path d="M43.653 48.062c0.01 0 0.021 0.001 0.031 0.002 1.064 0.061 2.142 0.092 3.223 0.106 0.114 0.002 0.229 0.004 0.343 0.005v-6.939-0.004c-0.111-0.001-0.218-0.009-0.328-0.01-1.018-0.015-2.026-0.041-3.022-0.095-0.018 0-0.036-0.001-0.054-0.002-1-0.054-1.993-0.135-2.986-0.229-0.108-0.011-0.217-0.015-0.326-0.025-0.073 0.761-0.132 1.522-0.182 2.284-0.021 0.331-0.055 0.66-0.072 0.991-0.06 1.194-0.09 2.399-0.093 3.626 0.116 0.013 0.232 0.023 0.349 0.036C41.564 47.911 42.602 48.001 43.653 48.062z" fill="#1c4b82" data-fill-palette-color="accent"></path>
                                                                    <path d="M43.956 56.528c0.087 0.004 0.175 0.004 0.263 0.008 1.003 0.05 2.017 0.07 3.031 0.08v-6.931-0.004c-0.121-0.001-0.24-0.01-0.36-0.012-1.042-0.015-2.079-0.045-3.105-0.101-0.04-0.002-0.081-0.003-0.121-0.005-1.053-0.06-2.092-0.146-3.121-0.249-0.11-0.011-0.225-0.016-0.334-0.026 0.002 0.121 0.004 0.243 0.007 0.364 0.022 1.065 0.06 2.122 0.125 3.156 0.003 0.057 0.009 0.111 0.013 0.168 0.065 0.998 0.154 1.977 0.258 2.938 0.013 0.115 0.024 0.231 0.037 0.346 0.312 0.031 0.626 0.059 0.939 0.087C42.372 56.416 43.158 56.485 43.956 56.528z" fill="#1c4b82" data-fill-palette-color="accent"></path>
                                                                    <path d="M47.25 58.136v-0.004c-1.105-0.011-2.206-0.046-3.298-0.103-0.128-0.007-0.253-0.021-0.381-0.028-0.914-0.052-1.825-0.113-2.722-0.198 0.074 0.537 0.148 1.073 0.233 1.595 0.029 0.18 0.054 0.367 0.085 0.546 0.139 0.802 0.295 1.574 0.46 2.329 1.799 0.807 3.686 1.261 5.623 1.354V58.136z" fill="#1c4b82" data-fill-palette-color="accent"></path>
                                                                    <path d="M82.214 39.979l2.963-3.474-1.142-0.973-3.044 3.569c-2.351-1.654-5.056-3.369-8.036-4.968l3.179-4.386-1.215-0.881-3.307 4.562c-3.568-1.817-7.503-3.428-11.694-4.555l2.659-4.443-1.287-0.77-2.887 4.824c-3.102-0.733-6.334-1.178-9.653-1.238v-5.876h-1.5v5.876c-3.289 0.06-6.493 0.498-9.569 1.22l-2.876-4.806-1.287 0.77 2.646 4.421c-4.195 1.121-8.134 2.728-11.707 4.543l-3.281-4.527-1.215 0.881 3.152 4.349c-2.982 1.597-5.689 3.31-8.045 4.963l-3.009-3.527-1.142 0.973 2.927 3.432c-5.498 4.009-8.809 7.437-8.888 7.52l-0.492 0.517 0.492 0.517c0.08 0.084 3.401 3.522 8.916 7.54l-2.955 3.465 1.142 0.973 3.037-3.562c2.356 1.652 5.063 3.364 8.044 4.958l-3.18 4.389 1.215 0.881 3.31-4.567c3.573 1.813 7.512 3.418 11.706 4.535l-2.674 4.467 1.287 0.77 2.905-4.853c3.068 0.718 6.262 1.154 9.541 1.214v5.93h1.5v-5.93c3.309-0.06 6.531-0.503 9.625-1.232l2.916 4.871 1.287-0.77-2.687-4.488c4.19-1.124 8.125-2.733 11.693-4.549l3.335 4.603 1.215-0.881-3.207-4.425c2.979-1.598 5.684-3.311 8.036-4.964l3.073 3.604 1.142-0.973-2.991-3.507c5.48-4 8.778-7.415 8.857-7.498l0.492-0.517-0.492-0.517C90.964 47.374 87.678 43.971 82.214 39.979zM26.376 47.274l-1.152 2.872-1.377-2.771-2.871-1.155 2.77-1.375 1.154-2.872 1.376 2.771 2.873 1.15L26.376 47.274zM27.985 53.77l-3.51 1.746-1.461 3.64-1.747-3.511-3.639-1.461 3.51-1.747 1.462-3.644 1.745 3.515L27.985 53.77zM15.14 47.136l1.157-2.897 1.394 2.796 2.894 1.164-2.792 1.388-1.163 2.898-1.388-2.797-2.898-1.164L15.14 47.136zM42.017 64.035l0.022 0.099-1.391-0.661c-0.001 0-0.002 0-0.003-0.001l-0.329-0.157-0.004-0.017c-2.993-1.503-5.445-3.799-7.129-6.678l-0.018-0.004L33 56.32c-0.002-0.004-0.004-0.008-0.006-0.012L32.19 54.87l0.108 0.023c-0.959-2.176-1.469-4.536-1.469-6.92 0-0.127 0.01-0.252 0.017-0.377l-0.003-0.001 0.014-0.235c0.003-0.041 0.002-0.082 0.005-0.123l0.068-1.169 0.029 0.008c0.249-2.248 0.935-4.427 2.02-6.394l-0.036-0.008 0.585-0.918 0.278-0.436 0.02 0.004c1.646-2.414 3.872-4.364 6.485-5.677l0.003-0.016 0.329-0.157c0.001-0.001 0.002-0.001 0.003-0.001l1.391-0.661-0.022 0.099c1.688-0.636 3.441-0.988 5.234-1.066v-0.042H48h0.75v0.042c1.793 0.078 3.545 0.431 5.233 1.066l-0.022-0.099 1.394 0.662c0.006 0.003 0.011 0.006 0.017 0.009l0.312 0.148 0.003 0.016c2.615 1.313 4.84 3.262 6.486 5.677l0.02-0.004 0.278 0.436 0.585 0.918-0.036 0.008c1.085 1.967 1.771 4.146 2.02 6.394l0.029-0.008 0.068 1.169c0.003 0.041 0.002 0.082 0.005 0.123l0.014 0.235-0.003 0.001c0.006 0.125 0.017 0.25 0.017 0.377 0 2.384-0.51 4.744-1.469 6.92l0.108-0.023-0.803 1.438c-0.002 0.004-0.004 0.008-0.006 0.012l-0.165 0.296-0.018 0.004c-1.684 2.879-4.136 5.176-7.129 6.678l-0.004 0.017-0.313 0.149c-0.005 0.002-0.01 0.005-0.016 0.008l-1.395 0.662 0.022-0.099c-1.688 0.636-3.44 0.989-5.233 1.067v0.042H48h-0.75v-0.042C45.458 65.024 43.705 64.672 42.017 64.035zM72.153 47.376l-1.377 2.771-1.152-2.872-2.772-1.379 2.873-1.15 1.376-2.771 1.154 2.872 2.77 1.375L72.153 47.376zM78.372 54.184l-3.639 1.461-1.747 3.511-1.461-3.64-3.51-1.746 3.64-1.462 1.745-3.515 1.462 3.644L78.372 54.184zM80.758 49.688l-1.388 2.797-1.163-2.898-2.792-1.388 2.894-1.164 1.394-2.796 1.157 2.897 2.796 1.388L80.758 49.688z" fill="#1c4b82" data-fill-palette-color="accent"></path>
                                                                </svg>
                                                            </g>
                                                        </svg>
                                                    </g>
                                                    <g id="text-0">
                                                        <path d="M29.573 100.563v0c-0.575 1.598-1.453 2.904-2.632 3.916-1.176 1.021-2.653 1.634-4.431 1.84-1.769 0.201-3.834-0.123-6.193-0.971v0c-2.391-0.86-4.213-1.988-5.465-3.385-1.256-1.405-2.023-2.937-2.3-4.597-0.275-1.666-0.12-3.311 0.464-4.934v0c0.343-0.953 0.762-1.827 1.258-2.624 0.505-0.801 1.071-1.471 1.698-2.01v0l-5.294-1.904c-0.569-0.205-1.019-0.269-1.349-0.193-0.339 0.08-0.666 0.385-0.979 0.915v0l-0.443 0.718-0.403-0.145 0.87-8.049 0.527-0.32 5.638 2.213 19.9 7.158c0.543 0.195 1.019 0.258 1.427 0.188 0.408-0.07 0.771-0.336 1.089-0.799v0l0.256-0.32 0.402 0.145-2.05 7.115-1.598-0.163c0.221 0.91 0.314 1.886 0.279 2.927-0.038 1.048-0.261 2.141-0.671 3.279zM28.916 97.662v0c0.409-1.138 0.447-2.305 0.112-3.501v0l-16.16-5.813c-1.007 0.771-1.7 1.685-2.079 2.739v0c-0.469 1.304-0.118 2.687 1.053 4.148 1.169 1.468 3.368 2.782 6.597 3.944v0c3.229 1.161 5.658 1.544 7.287 1.148 1.63-0.396 2.693-1.284 3.19-2.665z" fill="#1c4b82" data-fill-palette-color="primary"></path>
                                                        <path d="M30.653 48.853v0c-0.616 0.76-1.379 1.209-2.287 1.347-0.908 0.138-1.732-0.092-2.471-0.691v0c-0.765-0.621-1.168-1.385-1.21-2.294-0.042-0.909 0.246-1.743 0.862-2.503v0c0.616-0.76 1.369-1.208 2.259-1.344 0.885-0.131 1.71 0.114 2.475 0.735v0c0.739 0.599 1.141 1.35 1.205 2.251 0.061 0.907-0.217 1.74-0.833 2.499zM52.214 59.888l-6.376 7.859-0.332-0.269 0.25-0.584c0.227-0.56 0.272-1.031 0.136-1.413-0.132-0.387-0.422-0.763-0.871-1.126v0l-10.503-8.521c-0.47-0.381-0.892-0.583-1.267-0.607-0.37-0.029-0.782 0.144-1.235 0.52v0l-0.48 0.398-0.341-0.276 3.011-7.756 0.602-0.062 4.689 3.974 9.403 7.628c0.449 0.364 0.873 0.568 1.274 0.614 0.406 0.049 0.851-0.084 1.335-0.4v0l0.373-0.249z" fill="#1c4b82" data-fill-palette-color="primary"></path>
                                                        <path d="M76.135 40.702v0c-1.184 0.771-2.34 1.325-3.467 1.662-1.121 0.333-2.214 0.554-3.278 0.663v0l-2.775-4.335 0.368-0.239 2.648 1.377c1.156 0.617 2.21 0.953 3.161 1.006 0.945 0.057 1.914-0.237 2.904-0.882v0c1.162-0.756 1.929-1.625 2.304-2.607 0.371-0.987 0.274-1.914-0.29-2.779v0c-0.519-0.797-1.197-1.284-2.034-1.461-0.84-0.182-2.083-0.03-3.728 0.458v0l-1.826 0.52c-1.756 0.528-3.355 0.608-4.794 0.24-1.449-0.37-2.606-1.218-3.47-2.545v0c-1.038-1.594-1.29-3.356-0.754-5.286 0.53-1.926 1.967-3.653 4.313-5.181v0c0.939-0.612 1.894-1.088 2.865-1.428 0.965-0.336 1.968-0.552 3.009-0.646v0l2.325 4.056-0.359 0.234-2.735-1.417c-0.975-0.5-1.792-0.766-2.454-0.798-0.655-0.035-1.43 0.238-2.324 0.82v0c-0.82 0.534-1.446 1.266-1.878 2.196-0.423 0.932-0.36 1.819 0.189 2.662v0c0.538 0.826 1.27 1.277 2.197 1.355 0.93 0.083 2.132-0.063 3.606-0.439v0l1.942-0.584c2.087-0.605 3.806-0.687 5.156-0.244 1.36 0.444 2.464 1.318 3.314 2.622v0c1.146 1.759 1.371 3.624 0.675 5.593-0.696 1.969-2.299 3.772-4.81 5.407z" fill="#1c4b82" data-fill-palette-color="primary"></path>
                                                        <path d="M115.495 24.422v0c-1.913 0.444-3.744 0.429-5.492-0.044-1.747-0.467-3.261-1.385-4.542-2.755-1.282-1.377-2.19-3.217-2.724-5.52v0c-0.528-2.277-0.483-4.338 0.135-6.183 0.626-1.84 1.674-3.384 3.142-4.632 1.477-1.242 3.211-2.094 5.203-2.556v0c1.628-0.378 3.066-0.432 4.315-0.164 1.25 0.275 2.268 0.771 3.055 1.489 0.789 0.724 1.29 1.549 1.505 2.475v0c0.183 0.788 0.086 1.452-0.291 1.993-0.382 0.549-0.95 0.911-1.704 1.086v0c-0.814 0.189-1.541 0.047-2.181-0.426-0.646-0.471-1.123-1.173-1.43-2.106v0c-0.171-0.616-0.276-1.146-0.317-1.59-0.048-0.449-0.151-0.893-0.308-1.33v0c-0.223-0.45-0.472-0.727-0.748-0.831-0.274-0.097-0.622-0.096-1.045 0.002v0c-1.714 0.398-2.869 1.45-3.464 3.157-0.594 1.707-0.514 4.189 0.242 7.446v0c0.657 2.833 1.686 4.879 3.087 6.137 1.401 1.258 3.197 1.633 5.388 1.125v0c1.317-0.306 2.328-0.791 3.031-1.456 0.704-0.665 1.325-1.563 1.865-2.693v0l0.496 0.241c-0.318 1.817-1.1 3.345-2.348 4.583-1.254 1.239-2.877 2.09-4.87 2.552z" fill="#1c4b82" data-fill-palette-color="primary"></path>
                                                        <path d="M157.33 23.224v0c-2.167-0.304-3.987-1.019-5.462-2.146-1.468-1.126-2.523-2.577-3.166-4.356-0.636-1.777-0.797-3.779-0.485-6.006v0c0.313-2.227 1.047-4.086 2.204-5.578 1.157-1.498 2.602-2.578 4.335-3.24 1.739-0.655 3.621-0.84 5.646-0.556v0c2.025 0.284 3.778 0.973 5.257 2.066 1.479 1.1 2.565 2.525 3.259 4.275 0.7 1.759 0.892 3.765 0.575 6.02v0c-0.316 2.254-1.024 4.141-2.122 5.661-1.098 1.52-2.505 2.619-4.22 3.298-1.708 0.68-3.648 0.867-5.821 0.562zM157.45 22.366v0c1.003 0.141 1.843-0.033 2.523-0.521 0.679-0.488 1.255-1.44 1.728-2.855 0.474-1.422 0.897-3.459 1.27-6.11v0c0.377-2.685 0.533-4.773 0.467-6.264-0.064-1.498-0.356-2.575-0.874-3.231-0.519-0.649-1.281-1.044-2.283-1.185v0c-0.996-0.14-1.843 0.029-2.541 0.508-0.693 0.486-1.276 1.44-1.75 2.862-0.473 1.416-0.898 3.466-1.275 6.151v0c-0.372 2.651-0.526 4.726-0.462 6.223 0.065 1.491 0.364 2.566 0.895 3.224 0.539 0.659 1.306 1.058 2.302 1.198z" fill="#1c4b82" data-fill-palette-color="primary"></path>
                                                        <path d="M199.85 37.847l-2.176-1.245 2.475-19.752c0.141-1.054-0.136-1.96-0.83-2.716v0l-0.445-0.454 0.218-0.381 9.724 5.559-0.218 0.381-0.758-0.234c-1.121-0.312-1.793 0.165-2.015 1.43v0l-2.052 12.728 9.624-8.292c0.487-0.387 0.773-0.771 0.859-1.153 0.085-0.382-0.079-0.793-0.493-1.233v0l-0.811-0.757 0.217-0.381 5.442 3.111-0.218 0.381-1.24-0.357c-0.543-0.146-1.018-0.171-1.425-0.075-0.405 0.105-0.837 0.355-1.297 0.749v0z" fill="#1c4b82" data-fill-palette-color="primary"></path>
                                                        <path d="M248.338 51.606v0c1.192 1.439 1.92 2.914 2.184 4.425 0.254 1.51 0.101 2.956-0.458 4.336-0.559 1.381-1.482 2.604-2.769 3.67v0c-0.241 0.199-0.5 0.392-0.779 0.579-0.274 0.191-0.538 0.336-0.793 0.432v0l-8.218-9.921c-2.379 2.006-3.75 3.866-4.114 5.579-0.363 1.703 0.137 3.376 1.498 5.019v0c0.919 1.109 1.84 1.859 2.763 2.25 0.923 0.4 1.977 0.613 3.162 0.637v0l-0.019 0.584c-1.797 0.324-3.51 0.199-5.14-0.374-1.64-0.574-3.121-1.659-4.443-3.254v0c-1.305-1.575-2.124-3.256-2.458-5.044-0.335-1.778-0.155-3.537 0.538-5.277 0.698-1.734 1.924-3.328 3.677-4.78v0c1.821-1.508 3.701-2.391 5.642-2.648 1.936-0.262 3.756-0.041 5.46 0.664 1.705 0.705 3.127 1.746 4.267 3.123zM247.587 52.056v0c-0.533-0.644-1.182-1.033-1.946-1.167-0.764-0.134-1.747 0.08-2.949 0.643-1.201 0.563-2.708 1.577-4.52 3.043v0l4.72 5.698c2.599-1.783 4.268-3.315 5.006-4.597 0.728-1.283 0.625-2.489-0.311-3.62z" fill="#1c4b82" data-fill-palette-color="primary"></path>
                                                        <path d="M252.189 103.065l-3.696-10.573 0.404-0.141 0.376 0.549c0.357 0.487 0.735 0.776 1.134 0.866 0.399 0.091 0.855 0.047 1.368-0.132v0l12.777-4.466c0.597-0.208 1.003-0.466 1.22-0.772 0.217-0.306 0.285-0.751 0.203-1.334v0l-0.048-0.664 0.404-0.141 4.822 6.196-0.263 0.546-3.384 1.593-0.327 0.114c0.898 0.118 1.771 0.371 2.618 0.758 0.854 0.385 1.618 0.881 2.291 1.488 0.666 0.609 1.127 1.279 1.383 2.011v0c0.363 1.039 0.354 1.928-0.029 2.666-0.38 0.745-1.007 1.27-1.879 1.575v0c-0.924 0.323-1.728 0.309-2.412-0.043-0.693-0.355-1.168-0.902-1.426-1.639v0c-0.399-1.142-0.18-2.348 0.657-3.62v0l0.06-0.107c0.282-0.408 0.384-0.796 0.305-1.165-0.085-0.366-0.372-0.633-0.862-0.8v0c-0.338-0.184-0.708-0.307-1.111-0.367-0.4-0.054-0.848-0.089-1.343-0.103v0l-11.381 3.978c-1.09 0.381-1.603 1.097-1.539 2.147v0l0.082 1.439z" fill="#1c4b82" data-fill-palette-color="primary"></path>
                                                        <path d="M8.417 187.081v0c-0.619-1.691-0.793-3.353-0.522-4.986 0.264-1.631 1.049-3.133 2.355-4.508 1.306-1.375 3.209-2.52 5.71-3.436v0c2.533-0.927 4.79-1.246 6.769-0.958 1.98 0.289 3.648 1.013 5.006 2.173 1.354 1.169 2.347 2.618 2.98 4.347v0c0.367 1.002 0.616 1.999 0.748 2.993 0.141 0.998 0.141 1.927 0.001 2.789v0l5.608-2.053c0.6-0.22 1.009-0.474 1.229-0.764 0.219-0.29 0.276-0.759 0.169-1.408v0l-0.129-0.886 0.431-0.157 4.78 7.16-0.221 0.613-6.102 2.038-21.086 7.716c-0.574 0.21-1.006 0.484-1.294 0.822-0.285 0.329-0.397 0.793-0.337 1.393v0l0.006 0.432-0.431 0.157-3.175-7.195 1.416-0.963c-0.799-0.583-1.541-1.314-2.224-2.192-0.681-0.872-1.243-1.915-1.687-3.127zM10.933 189.004v0c0.441 1.206 1.207 2.181 2.297 2.925v0l17.123-6.266c0.299-1.318 0.243-2.538-0.168-3.662v0c-0.504-1.378-1.733-2.264-3.685-2.656-1.952-0.392-4.642 0.038-8.069 1.293v0c-3.42 1.252-5.658 2.591-6.712 4.019-1.061 1.43-1.323 2.879-0.786 4.347z" fill="#1c4b82" data-fill-palette-color="primary"></path>
                                                        <path d="M52.218 213.49v0c-0.657-0.805-0.959-1.695-0.904-2.67 0.055-0.975 0.475-1.782 1.259-2.422v0c0.805-0.657 1.686-0.911 2.642-0.762 0.95 0.154 1.754 0.634 2.411 1.439v0c0.657 0.805 0.962 1.684 0.914 2.635-0.057 0.95-0.489 1.754-1.294 2.412v0c-0.784 0.64-1.653 0.898-2.606 0.772-0.957-0.131-1.765-0.599-2.422-1.404zM36.096 233.533l-6.8-8.329 0.355-0.291 0.548 0.382c0.529 0.358 1.008 0.51 1.439 0.457 0.43-0.053 0.882-0.273 1.356-0.66v0l11.14-9.094c0.495-0.404 0.795-0.798 0.902-1.184 0.101-0.381 0.006-0.847-0.286-1.398v0l-0.295-0.588 0.355-0.29 7.417 4.799-0.073 0.652-5.135 4.008-9.964 8.134c-0.474 0.387-0.78 0.786-0.917 1.197-0.138 0.411-0.096 0.898 0.127 1.461v0l0.186 0.454z" fill="#1c4b82" data-fill-palette-color="primary"></path>
                                                        <path d="M63.618 257.606v0c-1.258-0.821-2.291-1.706-3.099-2.655-0.808-0.949-1.491-1.918-2.047-2.906v0l3.019-4.552 0.385 0.25-0.198 3.157c-0.103 1.401 0.021 2.573 0.37 3.516 0.354 0.937 1.057 1.749 2.111 2.436v0c1.229 0.802 2.4 1.177 3.513 1.124 1.117-0.058 1.978-0.551 2.584-1.478v0c0.55-0.842 0.733-1.708 0.551-2.598-0.192-0.888-0.876-2.028-2.052-3.42v0l-1.285-1.556c-1.264-1.482-2.028-3.003-2.292-4.563-0.258-1.556 0.073-3.04 0.994-4.451v0c1.103-1.69 2.706-2.692 4.81-3.007 2.1-0.309 4.394 0.348 6.88 1.971v0c1.001 0.654 1.876 1.378 2.622 2.173 0.737 0.797 1.374 1.68 1.912 2.647v0l-2.943 4.007-0.384-0.251 0.211-3.27c0.066-1.158-0.027-2.066-0.279-2.725-0.246-0.655-0.844-1.293-1.794-1.913v0c-0.871-0.568-1.85-0.858-2.937-0.87-1.084-0.018-1.919 0.423-2.506 1.322v0c-0.568 0.871-0.692 1.775-0.372 2.714 0.316 0.945 0.974 2.051 1.972 3.32v0l1.404 1.634c1.476 1.766 2.291 3.402 2.446 4.906 0.145 1.506-0.234 2.951-1.137 4.333v0c-1.222 1.872-2.937 2.891-5.146 3.056-2.213 0.171-4.651-0.613-7.313-2.351z" fill="#1c4b82" data-fill-palette-color="primary"></path>
                                                        <path d="M110.141 276.992v0c-2.031-0.476-3.77-1.348-5.218-2.616-1.447-1.268-2.456-2.858-3.026-4.772-0.578-1.908-0.58-4.086-0.006-6.534v0c0.566-2.415 1.58-4.354 3.04-5.819 1.46-1.465 3.184-2.446 5.171-2.943 1.985-0.49 4.037-0.487 6.153 0.009v0c1.733 0.407 3.128 1.034 4.186 1.882 1.059 0.842 1.795 1.792 2.209 2.853 0.409 1.052 0.498 2.071 0.267 3.056v0c-0.196 0.834-0.599 1.423-1.21 1.768-0.618 0.344-1.33 0.421-2.137 0.232v0c-0.86-0.202-1.484-0.68-1.873-1.434-0.388-0.754-0.51-1.648-0.365-2.682v0c0.127-0.661 0.275-1.216 0.442-1.665 0.168-0.449 0.278-0.919 0.331-1.409v0c-0.001-0.531-0.111-0.909-0.331-1.135-0.213-0.224-0.544-0.389-0.993-0.495v0c-1.819-0.427-3.41 0.034-4.774 1.382-1.37 1.347-2.46 3.747-3.269 7.2v0c-0.708 3.016-0.689 5.453 0.055 7.31 0.744 1.856 2.277 3.057 4.599 3.601v0c1.402 0.329 2.593 0.34 3.572 0.032 0.985-0.299 2-0.864 3.046-1.693v0l0.363 0.462c-1.16 1.584-2.626 2.671-4.398 3.26-1.773 0.596-3.718 0.646-5.834 0.15z" fill="#1c4b82" data-fill-palette-color="primary"></path>
                                                        <path d="M160.145 278.643v0c-2.302 0.316-4.37 0.113-6.205-0.609-1.828-0.723-3.324-1.903-4.488-3.539-1.17-1.629-1.918-3.625-2.242-5.988v0c-0.326-2.369-0.112-4.487 0.639-6.354 0.745-1.865 1.912-3.383 3.5-4.554 1.58-1.177 3.448-1.914 5.602-2.21v0c2.154-0.296 4.143-0.099 5.965 0.59 1.831 0.695 3.356 1.84 4.577 3.435 1.227 1.594 2.005 3.589 2.334 5.985v0c0.329 2.396 0.149 4.53-0.54 6.402-0.683 1.87-1.8 3.399-3.351 4.585-1.552 1.187-3.482 1.939-5.791 2.257zM160.019 277.724v0c1.064-0.146 1.87-0.566 2.419-1.258 0.556-0.694 0.873-1.835 0.95-3.423 0.078-1.581-0.077-3.782-0.465-6.603v0c-0.392-2.854-0.839-5.035-1.341-6.543-0.502-1.508-1.115-2.522-1.837-3.04-0.716-0.519-1.606-0.705-2.67-0.559v0c-1.064 0.146-1.877 0.566-2.439 1.261-0.57 0.696-0.893 1.837-0.97 3.425-0.077 1.588 0.081 3.809 0.473 6.663v0c0.387 2.82 0.832 4.982 1.333 6.484 0.502 1.508 1.121 2.521 1.857 3.036 0.729 0.517 1.626 0.703 2.69 0.557z" fill="#1c4b82" data-fill-palette-color="primary"></path>
                                                        <path d="M210.376 260.391l-2.322 1.319-16.709-12.966c-0.886-0.692-1.863-0.927-2.931-0.703v0l-0.649 0.158-0.226-0.399 10.341-5.875 0.227 0.398-0.636 0.573c-0.883 0.853-0.809 1.726 0.221 2.617v0l10.52 8.758-2.366-13.285c-0.089-0.653-0.286-1.123-0.591-1.411-0.301-0.282-0.763-0.352-1.385-0.209v0l-1.137 0.329-0.227-0.398 5.796-3.293 0.226 0.399-1.004 0.934c-0.431 0.425-0.71 0.849-0.837 1.272-0.127 0.424-0.133 0.955-0.02 1.594v0z" fill="#1c4b82" data-fill-palette-color="primary"></path>
                                                        <path d="M230.564 213.384v0c1.276-1.528 2.675-2.573 4.197-3.135 1.532-0.563 3.072-0.684 4.619-0.366 1.548 0.319 3.003 1.046 4.365 2.183v0c0.261 0.218 0.518 0.45 0.772 0.698 0.244 0.248 0.445 0.495 0.602 0.741v0l-8.771 10.508c2.562 2.094 4.769 3.167 6.622 3.217 1.852 0.05 3.503-0.793 4.953-2.53v0c0.98-1.174 1.586-2.282 1.82-3.326 0.234-1.044 0.249-2.186 0.046-3.427v0l0.607-0.091c0.688 1.805 0.893 3.617 0.613 5.437-0.28 1.82-1.127 3.577-2.543 5.273v0c-1.393 1.669-2.99 2.85-4.789 3.543-1.79 0.692-3.66 0.844-5.611 0.455-1.95-0.389-3.854-1.358-5.71-2.908v0c-1.925-1.607-3.213-3.398-3.864-5.376-0.641-1.978-0.761-3.923-0.359-5.836 0.406-1.918 1.216-3.605 2.431-5.06zM231.183 214.073v0c-0.57 0.683-0.85 1.437-0.838 2.261 0.007 0.829 0.419 1.815 1.236 2.957 0.826 1.141 2.181 2.519 4.063 4.135v0l5.035-6.033c-2.365-2.373-4.29-3.82-5.774-4.342-1.484-0.513-2.724-0.172-3.722 1.022z" fill="#1c4b82" data-fill-palette-color="primary"></path>
                                                        <path d="M272.247 183.771l-3.98 11.208-0.432-0.153 0.059-0.715c0.032-0.638-0.087-1.127-0.355-1.467-0.271-0.334-0.681-0.599-1.232-0.794v0l-13.543-4.808c-0.634-0.225-1.142-0.286-1.524-0.185-0.378 0.111-0.727 0.434-1.047 0.97v0l-0.405 0.592-0.432-0.154 0.126-8.337 0.595-0.275 3.857 0.926 0.346 0.122c-0.664-0.69-1.22-1.479-1.669-2.366-0.447-0.894-0.744-1.814-0.891-2.76-0.156-0.942-0.095-1.804 0.182-2.585v0c0.389-1.095 0.99-1.823 1.803-2.183 0.809-0.369 1.674-0.39 2.596-0.063v0c0.986 0.35 1.645 0.901 1.976 1.654 0.331 0.752 0.358 1.519 0.081 2.3v0c-0.43 1.21-1.413 2.061-2.951 2.553v0l-0.117 0.056c-0.506 0.145-0.848 0.398-1.027 0.76-0.17 0.358-0.111 0.768 0.179 1.232v0c0.154 0.379 0.377 0.725 0.67 1.038 0.297 0.322 0.645 0.651 1.045 0.987v0l12.073 4.287c1.153 0.409 2.052 0.159 2.7-0.75v0l0.884-1.244z" fill="#1c4b82" data-fill-palette-color="primary"></path>
                                                        <path d="M0 139.652c0-6.395 5.184-11.579 11.579-11.579 6.395 0 11.579 5.184 11.579 11.579 0 6.395-5.184 11.579-11.579 11.579-6.395 0-11.579-5.184-11.579-11.579z" fill="#1c4b82" data-fill-palette-color="primary"></path>
                                                        <path d="M256.842 139.652c0-6.395 5.184-11.579 11.579-11.579 6.395 0 11.579 5.184 11.579 11.579 0 6.395-5.184 11.579-11.579 11.579-6.395 0-11.579-5.184-11.579-11.579z" fill="#1c4b82" data-fill-palette-color="primary"></path>
                                                    </g>
                                                    <g id="text-1"></g>
                                                </svg>
                                            </g>
                                        </svg>
                                    </g>
                                </svg>
                            </g>
                        </svg>
                    </g>
                    <defs></defs>
                </svg>
                <rect width="280" height="280" fill="none" stroke="none" visibility="hidden"></rect>
            </g>
        </svg>
    </g>
</svg>